<svg width="360" height="220" viewBox="0 0 360 220" fill="none" xmlns="http://www.w3.org/2000/svg">
  <rect width="360" height="220" rx="28" fill="#EEF5FF"/>
  <rect x="54" y="40" width="132" height="70" rx="14" fill="#BFD9FF"/>
  <rect x="72" y="59" width="68" height="10" rx="5" fill="#FFFFFF" fill-opacity=".8"/>
  <rect x="72" y="79" width="92" height="10" rx="5" fill="#FFFFFF" fill-opacity=".55"/>
  <rect x="204" y="30" width="104" height="58" rx="14" fill="#D8E8FF"/>
  <circle cx="232" cy="59" r="14" fill="#6C7AE0"/>
  <path d="M214 82c7-12 29-12 36 0" fill="#6C7AE0"/>
  <path d="M142 158c11-35 30-59 58-66 18 9 33 25 46 50l-30 38H156l-14-22Z" fill="#5366D6"/>
  <circle cx="199" cy="74" r="25" fill="#FFB6A1"/>
  <path d="M176 75c0-25 22-42 45-34 0 20-10 32-28 32-8 0-12 4-17 2Z" fill="#344563"/>
  <rect x="92" y="138" width="128" height="42" rx="12" fill="#FFFFFF"/>
  <rect x="108" y="154" width="76" height="8" rx="4" fill="#BFD9FF"/>
  <rect x="234" y="118" width="72" height="52" rx="14" fill="#FFFFFF"/>
  <rect x="250" y="139" width="40" height="8" rx="4" fill="#6CA8FF"/>
  <rect x="250" y="154" width="28" height="8" rx="4" fill="#D1D6DB"/>
</svg>
