<svg width="56" height="56" viewBox="0 0 56 56" fill="none" xmlns="http://www.w3.org/2000/svg">
  <circle cx="28" cy="28" r="28" fill="#3B7AF7"/>
  <circle cx="28" cy="28" r="20" fill="#F7FAFF"/>
  <path d="M16 31.5C16 24.6 21.2 19 28 19s12 5.6 12 12.5V36c0 2.2-1.8 4-4 4H20c-2.2 0-4-1.8-4-4v-4.5Z" fill="#344563"/>
  <path d="M20 29.2C20 24.7 23.6 21 28 21s8 3.7 8 8.2V36c0 3.3-2.7 6-6 6h-4c-3.3 0-6-2.7-6-6v-6.8Z" fill="#FFD4A8"/>
  <circle cx="24.5" cy="32" r="1.5" fill="#26364A"/>
  <circle cx="31.5" cy="32" r="1.5" fill="#26364A"/>
  <path d="M25 37c1.8 1.2 4.2 1.2 6 0" stroke="#B46A4B" stroke-width="1.6" stroke-linecap="round"/>
  <path d="M18 31h-2.5A3.5 3.5 0 0 0 12 34.5v1A3.5 3.5 0 0 0 15.5 39H18v-8Zm20 0h2.5a3.5 3.5 0 0 1 3.5 3.5v1a3.5 3.5 0 0 1-3.5 3.5H38v-8Z" fill="#F7FAFF"/>
</svg>
