<svg width="720" height="520" viewBox="64 44 580 438" fill="none" xmlns="http://www.w3.org/2000/svg">
  <defs>
    <filter id="softShadow" x="40" y="28" width="628" height="476" filterUnits="userSpaceOnUse" color-interpolation-filters="sRGB">
      <feDropShadow dx="0" dy="24" stdDeviation="24" flood-color="#191F28" flood-opacity=".12"/>
    </filter>
  </defs>
  <g filter="url(#softShadow)">
  <rect x="90" y="54" width="500" height="344" rx="30" fill="#FFFFFF" stroke="#D1D6DB"/>
  <rect x="112" y="78" width="456" height="296" rx="16" fill="#F7F8FA"/>
  <rect x="112" y="78" width="456" height="54" rx="16" fill="#FFFFFF"/>
  <rect x="112" y="116" width="456" height="1" fill="#E5E8EB"/>
  <circle cx="142" cy="105" r="7" fill="#3182F6"/>
  <circle cx="164" cy="105" r="7" fill="#D1D6DB"/>
  <circle cx="186" cy="105" r="7" fill="#D1D6DB"/>
  <text x="220" y="110" fill="#191F28" font-family="Pretendard, Apple SD Gothic Neo, sans-serif" font-size="16" font-weight="700">서비스 대시보드</text>
  <rect x="136" y="154" width="180" height="84" rx="14" fill="#FFFFFF" stroke="#E5E8EB"/>
  <text x="154" y="181" fill="#8B95A1" font-family="Pretendard, Apple SD Gothic Neo, sans-serif" font-size="12" font-weight="700">오늘 확인</text>
  <text x="154" y="212" fill="#191F28" font-family="Pretendard, Apple SD Gothic Neo, sans-serif" font-size="30" font-weight="760">8개</text>
  <rect x="154" y="218" width="70" height="24" rx="12" fill="#E8F3FF" stroke="#CFE5FF"/>
  <text x="172" y="234" fill="#1B64DA" font-family="Pretendard, Apple SD Gothic Neo, sans-serif" font-size="11" font-weight="700">확인</text>
  <rect x="332" y="154" width="212" height="84" rx="14" fill="#FFFFFF" stroke="#E5E8EB"/>
  <text x="350" y="181" fill="#8B95A1" font-family="Pretendard, Apple SD Gothic Neo, sans-serif" font-size="12" font-weight="700">진행 중</text>
  <text x="350" y="212" fill="#191F28" font-family="Pretendard, Apple SD Gothic Neo, sans-serif" font-size="30" font-weight="760">14개</text>
  <rect x="350" y="218" width="86" height="24" rx="12" fill="#F2F4F6" stroke="#E5E8EB"/>
  <text x="370" y="234" fill="#4E5968" font-family="Pretendard, Apple SD Gothic Neo, sans-serif" font-size="11" font-weight="700">진행 중</text>
  <rect x="136" y="260" width="408" height="90" rx="14" fill="#FFFFFF" stroke="#E5E8EB"/>
  <text x="154" y="288" fill="#191F28" font-family="Pretendard, Apple SD Gothic Neo, sans-serif" font-size="18" font-weight="760">최근 작업</text>
  <rect x="154" y="306" width="372" height="1" fill="#E5E8EB"/>
  <text x="154" y="333" fill="#333D4B" font-family="Pretendard, Apple SD Gothic Neo, sans-serif" font-size="13" font-weight="700">알림 문구 확인</text>
  <rect x="428" y="314" width="62" height="24" rx="12" fill="#FFF7E6" stroke="#FFD58A"/>
  <text x="443" y="330" fill="#8A5A00" font-family="Pretendard, Apple SD Gothic Neo, sans-serif" font-size="11" font-weight="700">확인 필요</text>
  <rect x="410" y="150" width="206" height="326" rx="34" fill="#191F28" fill-opacity=".11"/>
  <rect x="430" y="118" width="182" height="346" rx="34" fill="#191F28"/>
  <rect x="442" y="132" width="158" height="318" rx="24" fill="#FFFFFF"/>
  <rect x="442" y="132" width="158" height="72" rx="24" fill="#F5F6F8"/>
  <text x="458" y="168" fill="#191F28" font-family="Pretendard, Apple SD Gothic Neo, sans-serif" font-size="16" font-weight="760">오늘 상태</text>
  <text x="458" y="190" fill="#6B7684" font-family="Pretendard, Apple SD Gothic Neo, sans-serif" font-size="11" font-weight="600">필요한 정보만 보기</text>
  <rect x="458" y="224" width="126" height="54" rx="12" fill="#E8F3FF"/>
  <text x="474" y="250" fill="#1B64DA" font-family="Pretendard, Apple SD Gothic Neo, sans-serif" font-size="12" font-weight="800">확인 가능한 작업</text>
  <text x="474" y="268" fill="#191F28" font-family="Pretendard, Apple SD Gothic Neo, sans-serif" font-size="18" font-weight="760">8개</text>
  <rect x="458" y="292" width="126" height="54" rx="12" fill="#FFFFFF" stroke="#E5E8EB"/>
  <text x="474" y="319" fill="#6B7684" font-family="Pretendard, Apple SD Gothic Neo, sans-serif" font-size="12" font-weight="700">진행 중</text>
  <text x="474" y="337" fill="#191F28" font-family="Pretendard, Apple SD Gothic Neo, sans-serif" font-size="18" font-weight="760">14개</text>
  <rect x="458" y="360" width="126" height="44" rx="12" fill="#FFFFFF" stroke="#E5E8EB"/>
  <text x="474" y="387" fill="#333D4B" font-family="Pretendard, Apple SD Gothic Neo, sans-serif" font-size="12" font-weight="700">설정 완료</text>
  <circle cx="522" cy="435" r="5" fill="#D1D6DB"/>
  </g>
</svg>
