<svg width="620" height="560" viewBox="0 0 620 560" fill="none" xmlns="http://www.w3.org/2000/svg">
  <rect width="620" height="560" fill="none"/>
  <rect x="182" y="30" width="256" height="500" rx="44" fill="#191F28"/>
  <rect x="198" y="48" width="224" height="464" rx="32" fill="#FFFFFF"/>
  <rect x="198" y="48" width="224" height="132" rx="32" fill="#F5F6F8"/>
  <rect x="282" y="62" width="56" height="6" rx="3" fill="#D1D6DB"/>
  <text x="222" y="112" fill="#191F28" font-family="Pretendard, Apple SD Gothic Neo, sans-serif" font-size="24" font-weight="760">오늘 상태</text>
  <text x="222" y="140" fill="#6B7684" font-family="Pretendard, Apple SD Gothic Neo, sans-serif" font-size="13" font-weight="600">중요한 일만 먼저 보여줘요.</text>
  <rect x="222" y="204" width="176" height="82" rx="18" fill="#E8F3FF"/>
  <text x="244" y="238" fill="#1B64DA" font-family="Pretendard, Apple SD Gothic Neo, sans-serif" font-size="14" font-weight="800">확인 가능한 작업</text>
  <text x="244" y="268" fill="#191F28" font-family="Pretendard, Apple SD Gothic Neo, sans-serif" font-size="30" font-weight="760">8개</text>
  <rect x="222" y="306" width="176" height="74" rx="18" fill="#FFFFFF" stroke="#E5E8EB"/>
  <text x="244" y="338" fill="#8B95A1" font-family="Pretendard, Apple SD Gothic Neo, sans-serif" font-size="13" font-weight="800">문구 점검</text>
  <text x="244" y="362" fill="#191F28" font-family="Pretendard, Apple SD Gothic Neo, sans-serif" font-size="20" font-weight="760">확인 필요</text>
  <rect x="222" y="400" width="176" height="56" rx="18" fill="#FFFFFF" stroke="#E5E8EB"/>
  <text x="244" y="435" fill="#333D4B" font-family="Pretendard, Apple SD Gothic Neo, sans-serif" font-size="15" font-weight="800">설정 완료</text>
  <circle cx="310" cy="490" r="5" fill="#D1D6DB"/>
  <rect x="86" y="340" width="150" height="84" rx="18" fill="#FFFFFF" stroke="#E5E8EB"/>
  <text x="108" y="374" fill="#8B95A1" font-family="Pretendard, Apple SD Gothic Neo, sans-serif" font-size="12" font-weight="800">상태</text>
  <text x="108" y="402" fill="#191F28" font-family="Pretendard, Apple SD Gothic Neo, sans-serif" font-size="20" font-weight="760">한눈에 확인</text>
  <rect x="384" y="124" width="150" height="84" rx="18" fill="#FFFFFF" stroke="#E5E8EB"/>
  <text x="406" y="158" fill="#8B95A1" font-family="Pretendard, Apple SD Gothic Neo, sans-serif" font-size="12" font-weight="800">문구</text>
  <text x="406" y="186" fill="#191F28" font-family="Pretendard, Apple SD Gothic Neo, sans-serif" font-size="20" font-weight="760">짧고 분명하게</text>
</svg>
